:SAMPLES-PER-SECOND 30
:FULLY-SPECIFIED
:DEGREES
61
root  -4.84739 40.1807 18.4979 178.142 16.6629 176.067
RightUpLeg  1.33584 -6.52452 -6.16952
RightLeg  8.11962 -6.04811 -2.68762
RightFoot  -6.92492 -0.301426 6.59924
RightToes  -1.74624e-010 0 -3.6325e-017
Spine  -9.30664 -0.910457 -8.55701
Spine1  22.8556 -1.27635 2.88066
HEad  -2.58798 17.8526 -1.96463
LeftShoulder1  2.39823 -5.37633 -20.5974
LeftArm  13.851 12.1081 -53.4616
LeftForeArm  32.1684 -77.2621 -102.52
LeftHand  0.309211 7.41848 18.375
RightShoulder  1.31613 1.71137 18.8052
RightArm  5.87201 -8.99674 58.5691
RightForeArm  3.03208 20.231 6.58049
RightHand  -0.304405 1.45094 -5.31296
LeftUpLeg  -0.744484 -0.998252 -3.61228
LeftLeg  1.7954 13.1453 -0.759153
LeftFoot  -1.26206 -0.139253 1.68418
LeftToes  -5.82109e-011 1.10366e-010 -8.03124e-011
62
root  -4.8399 40.1842 18.4902 178.156 17.0698 176.061
RightUpLeg  1.26282 -6.50689 -6.1698
RightLeg  8.08212 -5.67824 -2.63584
RightFoot  -6.89274 -0.302668 6.57553
RightToes  -1.74624e-010 0 -3.6325e-017
Spine  -9.3918 -0.87471 -8.50216
Spine1  23.044 -1.17736 2.71571
HEad  -2.58782 18.0476 -1.83163
LeftShoulder1  2.39198 -5.3901 -20.4778
LeftArm  13.6777 11.8825 -53.4903
LeftForeArm  32.0403 -77.2662 -102.393
LeftHand  0.31802 7.50811 18.1138
RightShoulder  1.32297 1.72678 18.8495
RightArm  5.86266 -9.09267 58.6276
RightForeArm  2.84344 20.2304 6.59154
RightHand  -0.321276 1.43911 -5.60885
LeftUpLeg  -0.686853 -0.954996 -3.58236
LeftLeg  1.6993 13.4978 -0.781978
LeftFoot  -1.26092 -0.135341 1.64311
LeftToes  -5.82109e-011 1.10366e-010 -8.03124e-011
63
root  -4.82999 40.1881 18.4787 178.164 17.5578 176.107
RightUpLeg  1.22403 -6.39929 -6.07374
RightLeg  7.99503 -5.32892 -2.64146
RightFoot  -6.81677 -0.305421 6.54879
RightToes  -1.74624e-010 0 -3.6325e-017
Spine  -9.45124 -0.789801 -8.36383
Spine1  23.1929 -1.03648 2.55639
HEad  -2.67651 18.1517 -1.83603
LeftShoulder1  2.4137 -5.48992 -20.417
LeftArm  13.5025 11.7624 -53.4396
LeftForeArm  31.9556 -77.2666 -102.432
LeftHand  0.345916 7.72536 17.8492
RightShoulder  1.32567 1.74183 18.8434
RightArm  5.56882 -9.17084 58.6991
RightForeArm  3.35221 20.1673 6.61034
RightHand  -0.310983 1.55531 -5.3525
LeftUpLeg  -0.62288 -0.845967 -3.48221
LeftLeg  1.66717 13.869 -0.807622
LeftFoot  -1.30623 -0.131381 1.60152
LeftToes  -5.82109e-011 1.10366e-010 -8.03124e-011
64
root  -4.82271 40.192 18.469 178.171 17.9544 176.186
RightUpLeg  1.23806 -6.30269 -5.95883
RightLeg  7.85824 -5.06368 -2.63444
RightFoot  -6.71361 -0.308828 6.50417
RightToes  -1.74624e-010 0 -3.6325e-017
Spine  -9.39358 -0.740874 -8.23986
Spine1  23.248 -0.970375 2.47353
HEad  -2.79796 18.1747 -1.94617
LeftShoulder1  2.42545 -5.53561 -20.411
LeftArm  13.3961 11.6789 -53.3976
LeftForeArm  31.8927 -77.2657 -102.511
LeftHand  0.371284 7.90767 17.7434
RightShoulder  1.31853 1.72276 18.7954
RightArm  5.36676 -9.16457 58.761
RightForeArm  3.93558 20.1167 6.61742
RightHand  -0.282392 1.64974 -4.81496
LeftUpLeg  -0.574906 -0.737703 -3.36206
LeftLeg  1.68013 14.1563 -0.815131
LeftFoot  -1.3646 -0.127146 1.55522
LeftToes  -5.82109e-011 1.10366e-010 -8.03124e-011
65
root  -4.81636 40.1954 18.4589 178.186 18.2305 176.247
RightUpLeg  1.27854 -6.25061 -5.88346
RightLeg  7.70363 -4.86957 -2.60569
RightFoot  -6.62147 -0.313725 6.51131
RightToes  -1.74624e-010 0 -3.6325e-017
Spine  -9.36098 -0.757751 -8.23542
Spine1  23.3682 -1.01697 2.51964
HEad  -2.90295 18.2202 -2.09959
LeftShoulder1  2.40111 -5.43871 -20.4307
LeftArm  13.4008 11.5606 -53.4397
LeftForeArm  31.7989 -77.2683 -102.415
LeftHand  0.372618 7.89697 17.87
RightShoulder  1.3066 1.69454 18.695
RightArm  5.47161 -9.05138 58.8343
RightForeArm  3.80273 20.1395 6.60666
RightHand  -0.264788 1.54481 -4.58585
LeftUpLeg  -0.538865 -0.663919 -3.27301
LeftLeg  1.68034 14.3578 -0.817899
LeftFoot  -1.40513 -0.123623 1.51883
LeftToes  -5.82109e-011 1.10366e-010 -8.03124e-011
66
root  -4.8052 40.1981 18.4421 178.191 18.5456 176.268
RightUpLeg  1.30116 -6.18048 -5.82782
RightLeg  7.58841 -4.65016 -2.61516
RightFoot  -6.56502 -0.318948 6.56419
RightToes  -1.74624e-010 0 -3.6325e-017
Spine  -9.46442 -0.771285 -8.31172
Spine1  23.626 -1.06997 2.62138
HEad  -2.99835 18.3939 -2.21329
LeftShoulder1  2.3691 -5.30321 -20.4833
LeftArm  13.4405 11.4705 -53.4696
LeftForeArm  31.8653 -77.2659 -102.404
LeftHand  0.364445 7.83954 17.8953
RightShoulder  1.30407 1.70732 18.5835
RightArm  5.70806 -8.90056 58.9009
RightForeArm  3.19467 20.2116 6.5842
RightHand  -0.268582 1.35551 -4.76263
LeftUpLeg  -0.465323 -0.581463 -3.21005
LeftLeg  1.62511 14.5931 -0.857033
LeftFoot  -1.43387 -0.121487 1.50202
LeftToes  -5.82109e-011 1.10366e-010 -8.03124e-011
